<svg height="512pt" viewBox="0 -36 512 512" width="512pt" xmlns="http://www.w3.org/2000/svg"><path d="m482.640625 368-21.28125-32-37.359375-56h-336l-21.359375 32-58.640625 88h496zm0 0" fill="#a0d468"/><path d="m239.199219 320c-9.597657-9.769531-22.40625-23.511719-35.765625-40-32.234375-39.921875-67.433594-96.320312-67.433594-152 0-66.238281 53.679688-120 120-120s120 53.761719 120 120c0 55.679688-35.199219 112.078125-67.441406 152-13.359375 16.488281-26.167969 30.230469-35.765625 40h-.082031c-10.078126 10.160156-16.71875 16-16.71875 16s-6.632813-5.839844-16.792969-16zm0 0" fill="#ed5565"/><path d="m482.640625 368h-48l-32-32h58.71875zm0 0" fill="#8cc152"/><path d="m304.800781 352 34.640625-32 43.519532 72h-189.921876l-32-32zm0 0" fill="#8cc152"/><g fill="#e6e9ed"><path d="m482.640625 368 21.359375 32h-70.800781l-15.277344-32zm0 0"/><path d="m256 336s6.640625-5.839844 16.71875-16h66.722656l11.519532 40h-189.921876l11.519532-40h66.640625c10.160156 10.160156 16.800781 16 16.800781 16zm0 0"/><path d="m120.71875 312-41.917969 88h-70.800781l58.640625-88zm0 0"/></g><path d="m152.71875 344-26.679688 56h-47.238281l41.917969-88zm0 0" fill="#8cc152"/><path d="m504 400v32h-496v-32zm0 0" fill="#81b53e"/><path d="m461.359375 336h-58.71875l-26.640625-56h48zm0 0" fill="#e6e9ed"/><path d="m256.007812 39.984375c48.558594 0 88 39.449219 88 88 0 48.640625-39.441406 88-88 88-48.550781 0-88-39.359375-88-88 0-48.550781 39.449219-88 88-88zm0 0" fill="#ffce54"/><path d="m504 408h-496c-2.953125 0-5.664062-1.625-7.054688-4.222656-1.394531-2.601563-1.234374-5.761719.398438-8.210938l80-120c2.441406-3.679687 7.398438-4.664062 11.097656-2.214844 3.679688 2.457032 4.671875 7.417969 2.214844 11.097657l-71.710938 107.550781h466.109376l-71.710938-107.558594c-2.457031-3.679687-1.464844-8.640625 2.214844-11.097656 3.679687-2.449219 8.648437-1.464844 11.097656 2.214844l80 120c1.632812 2.457031 1.792969 5.609375.398438 8.210937-1.390626 2.597657-4.101563 4.230469-7.054688 4.230469zm0 0"/><path d="m504 440h-496c-4.425781 0-8-3.574219-8-8v-32c0-4.425781 3.574219-8 8-8h496c4.425781 0 8 3.574219 8 8v32c0 4.425781-3.574219 8-8 8zm-488-16h480v-16h-480zm0 0"/><path d="m78.792969 408c-1.152344 0-2.320313-.246094-3.441407-.785156-3.984374-1.894532-5.679687-6.671875-3.777343-10.664063l41.945312-88c1.886719-3.976562 6.632813-5.695312 10.664063-3.773437 3.984375 1.894531 5.679687 6.671875 3.777344 10.664062l-41.945313 88c-1.367187 2.878906-4.230469 4.558594-7.222656 4.558594zm0 0"/><path d="m161.070312 368c-.734374 0-1.476562-.105469-2.207031-.3125-4.246093-1.214844-6.703125-5.648438-5.488281-9.886719l11.472656-40c1.207032-4.257812 5.6875-6.703125 9.886719-5.488281 4.25 1.214844 6.707031 5.648438 5.488281 9.886719l-11.46875 40c-1 3.519531-4.210937 5.800781-7.683594 5.800781zm0 0"/><path d="m433.207031 408c-2.992187 0-5.855469-1.679688-7.222656-4.550781l-15.265625-32.015625c-1.902344-3.992188-.207031-8.769532 3.777344-10.664063 4.023437-1.90625 8.777344-.210937 10.664062 3.773438l15.265625 32.015625c1.902344 3.992187.207031 8.769531-3.777343 10.664062-1.121094.53125-2.289063.777344-3.441407.777344zm0 0"/><path d="m402.679688 343.960938c-2.992188 0-5.855469-1.679688-7.222657-4.554688l-26.671875-55.957031c-1.90625-3.992188-.210937-8.769531 3.773438-10.664063 4.027344-1.921875 8.777344-.199218 10.664062 3.773438l26.671875 55.960937c1.90625 3.992188.210938 8.769531-3.773437 10.664063-1.121094.527344-2.289063.777344-3.441406.777344zm0 0"/><path d="m350.929688 368c-3.480469 0-6.671876-2.28125-7.683594-5.800781l-11.46875-40c-1.21875-4.238281 1.230468-8.671875 5.488281-9.886719 4.214844-1.207031 8.671875 1.222656 9.886719 5.488281l11.472656 40c1.214844 4.238281-1.234375 8.671875-5.488281 9.886719-.730469.207031-1.472657.3125-2.207031.3125zm0 0"/><path d="m120.753906 320h-54.089844c-4.425781 0-8-3.574219-8-8s3.574219-8 8-8h54.089844c4.421875 0 8 3.574219 8 8s-3.585937 8-8 8zm0 0"/><path d="m482.664062 376h-64.710937c-4.425781 0-8-3.574219-8-8s3.574219-8 8-8h64.710937c4.425782 0 8 3.574219 8 8s-3.574218 8-8 8zm0 0"/><path d="m461.335938 344h-58.640626c-4.421874 0-8-3.574219-8-8s3.578126-8 8-8h58.640626c4.425781 0 8 3.574219 8 8s-3.574219 8-8 8zm0 0"/><path d="m240 328h-67.472656c-4.421875 0-8-3.574219-8-8s3.578125-8 8-8h67.472656c4.425781 0 8 3.574219 8 8s-3.574219 8-8 8zm0 0"/><path d="m339.472656 328h-66.730468c-4.421876 0-8-3.574219-8-8s3.578124-8 8-8h66.730468c4.421875 0 8 3.574219 8 8s-3.585937 8-8 8zm0 0"/><path d="m350.9375 368h-189.875c-4.421875 0-8-3.574219-8-8s3.578125-8 8-8h189.875c4.421875 0 8 3.574219 8 8s-3.578125 8-8 8zm0 0"/><path d="m256 344c-1.878906 0-3.769531-.664062-5.273438-1.984375-5.007812-4.390625-122.726562-108.742187-122.726562-214.015625 0-70.574219 57.425781-128 128-128s128 57.425781 128 128c0 105.273438-117.71875 209.625-122.726562 214.015625-1.503907 1.320313-3.394532 1.984375-5.273438 1.984375zm0-328c-61.761719 0-112 50.238281-112 112 0 85.871094 89.152344 175.550781 112 197.128906 22.847656-21.570312 112-111.25 112-197.128906 0-61.761719-50.238281-112-112-112zm0 0"/><path d="m203.414062 288h-115.414062c-4.425781 0-8-3.574219-8-8s3.574219-8 8-8h115.414062c4.425782 0 8 3.574219 8 8s-3.582031 8-8 8zm0 0"/><path d="m424 288h-115.425781c-4.421875 0-8-3.574219-8-8s3.578125-8 8-8h115.425781c4.425781 0 8 3.574219 8 8s-3.574219 8-8 8zm0 0"/><path d="m256.128906 224.007812c-52.9375 0-96-43.0625-96-96s43.0625-96 96-96c52.933594 0 96 43.0625 96 96s-43.066406 96-96 96zm0-176c-44.113281 0-80 35.886719-80 80 0 44.113282 35.886719 80 80 80 44.109375 0 80-35.886718 80-80 0-44.113281-35.898437-80-80-80zm0 0"/><path d="m240.121094 168c-2.050782 0-4.097656-.785156-5.65625-2.34375l-23.984375-23.984375c-3.128907-3.128906-3.128907-8.183594 0-11.3125 3.128906-3.128906 8.183593-3.128906 11.3125 0l23.984375 23.984375c3.125 3.128906 3.125 8.183594 0 11.3125-1.570313 1.558594-3.609375 2.34375-5.65625 2.34375zm0 0"/><path d="m240.121094 168c-2.050782 0-4.097656-.785156-5.65625-2.34375-3.128906-3.128906-3.128906-8.183594 0-11.3125l56-56c3.128906-3.128906 8.183594-3.128906 11.3125 0 3.125 3.128906 3.125 8.183594 0 11.3125l-56 56c-1.570313 1.558594-3.609375 2.34375-5.65625 2.34375zm0 0"/></svg>